<?xml version="1.0" standalone="no"?>
<!DOCTYPE svg PUBLIC "-//W3C//DTD SVG 20010904//EN"
 "http://www.w3.org/TR/2001/REC-SVG-20010904/DTD/svg10.dtd">
<svg version="1.0" xmlns="http://www.w3.org/2000/svg"
 width="800.000000pt" height="800.000000pt" viewBox="0 0 800.000000 800.000000"
 preserveAspectRatio="xMidYMid meet">
<metadata>
Created by potrace 1.14, written by Peter Selinger 2001-2017
</metadata>
<g transform="translate(0.000000,800.000000) scale(0.100000,-0.100000)"
fill="#000000" stroke="none">
<path d="M0 4000 l0 -4000 4000 0 4000 0 0 4000 0 4000 -4000 0 -4000 0 0
-4000z m2872 2525 c96 -20 186 -66 241 -122 26 -27 233 -336 478 -713 237
-366 554 -854 704 -1085 150 -231 346 -532 435 -670 90 -137 220 -338 289
-445 l126 -195 5 1540 c5 1406 6 1543 21 1570 23 42 46 60 109 89 91 41 164
48 461 44 255 -4 279 -6 341 -27 77 -27 135 -71 154 -117 12 -28 14 -427 14
-2485 0 -2245 -1 -2454 -16 -2485 -23 -49 -75 -88 -152 -115 -63 -22 -84 -23
-372 -27 -248 -3 -319 0 -380 12 -99 21 -187 65 -244 123 -25 27 -115 154
-199 283 -84 129 -310 476 -502 770 -193 294 -390 596 -440 672 -598 917 -921
1408 -927 1408 -5 0 -8 -695 -8 -1545 0 -1289 -2 -1551 -14 -1579 -20 -48 -79
-91 -160 -118 -68 -22 -83 -23 -376 -23 -260 0 -313 3 -360 17 -80 25 -146 70
-170 117 -20 40 -20 41 -20 2486 0 2635 -3 2482 48 2538 26 29 108 67 176 82
90 20 647 20 738 0z"/>
</g>
</svg>
